<svg id="Layer_1" data-name="Layer 1" xmlns="http://www.w3.org/2000/svg" viewBox="0 0 363.34 148.32"><defs><style>.cls-1{fill:#ff689d;}</style></defs><path class="cls-1" d="M51.8,128.87a40.15,40.15,0,0,1-27.17-11.29c-9.27-8.79-13.42-24.67-10.33-39.53C17.06,64.8,25,54.89,36.1,50.86c22-8,38,4.59,43.35,12.35,7.81,11.27-9.89,23.54-17.7,12.28l.1.13c-1.1-1.47-7.14-8.6-18.4-4.51-5.37,2-7.35,7.94-8.06,11.33-1.55,7.46.19,15.84,4.06,19.51,4.09,3.87,9.25,5.86,13.8,5.29a10.91,10.91,0,0,0,8.08-5.36A10.77,10.77,0,1,1,79.5,113.43a32.35,32.35,0,0,1-23.61,15.19A34.81,34.81,0,0,1,51.8,128.87Z"/><path class="cls-1" d="M100.14,128.59a10.77,10.77,0,0,1-10.77-10.77V30.22a10.77,10.77,0,0,1,21.54,0v87.6A10.77,10.77,0,0,1,100.14,128.59Z"/><path class="cls-1" d="M108.53,60.45l2.38-3.35A27.31,27.31,0,0,1,131.24,48c12.83.16,27.5,6.56,27.5,33.55V109c0,2.43,3.83,1.68,3.66,6.69s-1.09,11.08-9,12.11-17.46-2-17.46-15.63v-28c0-10.85-4.12-15.41-13.1-15.24s-11.85,9-13.38,17.77S97.84,75.15,97.84,75.15Z"/><path class="cls-1" d="M183.82,95h38.53c16.59,0,17.61-6.49,16.88-16.35s-7.36-29.9-32.89-30.55S166,66.93,167.42,92.72,185.34,129.47,208,128s28.82-13.48,28.82-17.15-3.82-7-10-8.52-9.21,6.8-19.68,7.8-16.84-5.71-17.66-16.26-1-23,10.48-27c9.54-3.31,18.87,3.76,18.65,14H187.07Z"/><path class="cls-1" d="M255.75,49.63a11.5,11.5,0,0,0-11.51,11.5V96.78c0,11.26,5.91,26.6,23.08,30.41s30.45-4.53,32.95-16c0,0,2.53,16.39,19.5,16.6s26.09-11.45,28.55-20.43,1.06-14,1.06-14-6.47-1.84-5.08-10c0,0-3.54,7.54-11.55,7.57s-14.59-9-7.9-17.64c-12.24,1.58-16-3.18-10.83-14.54a14.42,14.42,0,0,0-13.47-7.63c-9.8.29-12.78,5-12.78,25v19.3a10.25,10.25,0,0,1-10.26,10.25h0a10.25,10.25,0,0,1-10.26-10.25V61.13a11.5,11.5,0,0,0-11.5-11.5Z"/><path d="M342.47,51.63h-1.79V57h-1V51.63h-1.78v-.88h4.6Z"/><path d="M350.05,57h-1V53c0-.33,0-.74.06-1.21h0a3.62,3.62,0,0,1-.17.58L347.05,57h-.71l-1.86-4.61a5.45,5.45,0,0,1-.17-.62h0c0,.25,0,.65,0,1.22v4h-.95V50.75h1.45l1.63,4.14a6.41,6.41,0,0,1,.25.71h0c.11-.32.19-.57.26-.73l1.66-4.12h1.4Z"/></svg>